{
  "source": "C:\\Users\\Peter\\Desktop\\stuff\\MIUN\\quantitative_research\\video_compression\\videos\\BVI-HD\\BVI-HD_CDVL_videos\\ORIG\\TreeGrassFamily_1920x1080_30fps.mp4",
  "output": "C:\\Users\\Peter\\Desktop\\stuff\\MIUN\\quantitative_research\\video_compression\\compressed_videos\\BVI-HD\\hevc\\2\\TreeGrassFamily_1920x1080_30fps_hevc.mp4",
  "codec": "hevc",
  "ok": "Input #0, mov,mp4,m4a,3gp,3g2,mj2, from 'C:\\Users\\Peter\\Desktop\\stuff\\MIUN\\quantitative_research\\video_compression\\videos\\BVI-HD\\BVI-HD_CDVL_videos\\ORIG\\TreeGrassFamily_1920x1080_30fps.mp4':\n  Metadata:\n    major_brand     : isom\n    minor_version   : 512\n    compatible_brands: isomiso2avc1mp41\n    encoder         : Lavf54.28.101\n  Duration: 00:00:05.00, start: 0.000000, bitrate: 331787 kb/s\n  Stream #0:0[0x1](und): Video: h264 (High 4:4:4 Predictive) (avc1 / 0x31637661), yuv420p(progressive), 1920x1080, 331784 kb/s, 30 fps, 30 tbr, 30 tbn (default)\n    Metadata:\n      handler_name    : VideoHandler\n      vendor_id       : [0][0][0][0]\n[out#0/mp4 @ 0000025108ebab00] Codec AVOption b:a (set bitrate (in bits/s)) has not been used for any stream. The most likely reason is either wrong type (e.g. a video option with no video streams) or that it is a private option of some decoder which was not actually used for any stream.\nStream mapping:\n  Stream #0:0 -> #0:0 (h264 (native) -> hevc (libx265))\nPress [q] to stop, [?] for help\n[libx265 @ 0000025109aef040] Unknown option: \"aq-mode.\nx265 [info]: HEVC encoder version 4.1+190-8f11c33ac\nx265 [info]: build info [Windows][GCC 15.1.0][64 bit] 10bit\nx265 [info]: using cpu capabilities: MMX2 SSE2Fast LZCNT SSSE3 SSE4.2 AVX FMA3 BMI2 AVX2\nx265 [info]: Main 10 profile, Level-4 (Main tier)\nx265 [info]: Thread pool created using 12 threads\nx265 [info]: Slices                              : 1\nx265 [info]: frame threads / pool features       : 3 / wpp(17 rows)\nx265 [info]: Coding QT: max CU size, min CU size : 64 / 8\nx265 [info]: Residual QT: max TU size, max depth : 32 / 1 inter / 1 intra\nx265 [info]: ME / range / subpel / merge         : star / 57 / 3 / 3\nx265 [info]: Keyframe min / max / scenecut / bias  : 25 / 250 / 40 / 5.00 \nx265 [info]: Lookahead / bframes / badapt        : 25 / 4 / 2\nx265 [info]: b-pyramid / weightp / weightb       : 1 / 1 / 0\nx265 [info]: References / ref-limit  cu / depth  : 4 / on / on\nx265 [info]: AQ: mode / str / qg-size / cu-tree  : 2 / 1.0 / 32 / 1\nx265 [info]: Rate Control / qCompress            : ABR-2000 kbps / 0.60\nx265 [info]: VBV/HRD buffer / max-rate / init    : 2000 / 2000 / 0.750\nx265 [info]: tools: rect limit-modes rd=4 psy-rd=2.00 rdoq=2 psy-rdoq=1.00\nx265 [info]: tools: rskip mode=1 signhide tmvp strong-intra-smoothing lslices=4\nx265 [info]: tools: deblock sao dhdr10-info\nOutput #0, mp4, to 'C:\\Users\\Peter\\Desktop\\stuff\\MIUN\\quantitative_research\\video_compression\\compressed_videos\\BVI-HD\\hevc\\2\\TreeGrassFamily_1920x1080_30fps_hevc.mp4':\n  Metadata:\n    major_brand     : isom\n    minor_version   : 512\n    compatible_brands: isomiso2avc1mp41\n    encoder         : Lavf62.3.100\n  Stream #0:0(und): Video: hevc (hev1 / 0x31766568), yuv420p10le(tv, progressive), 1920x1080, q=2-31, 2000 kb/s, 30 fps, 15360 tbn (default)\n    Metadata:\n      encoder         : Lavc62.11.100 libx265\n      handler_name    : VideoHandler\n      vendor_id       : [0][0][0][0]\n    Side data:\n      cpb: bitrate max/min/avg: 2000000/0/2000000 buffer size: 2000000 vbv_delay: N/A\nframe=    0 fps=0.0 q=0.0 size=       0KiB time=N/A bitrate=N/A speed=N/A elapsed=0:00:01.14    \nframe=    0 fps=0.0 q=0.0 size=       0KiB time=N/A bitrate=N/A speed=N/A elapsed=0:00:01.76    \nframe=    0 fps=0.0 q=0.0 size=       0KiB time=N/A bitrate=N/A speed=N/A elapsed=0:00:02.41    \nframe=    0 fps=0.0 q=0.0 size=       0KiB time=N/A bitrate=N/A speed=N/A elapsed=0:00:02.98    \nframe=    0 fps=0.0 q=0.0 size=       0KiB time=N/A bitrate=N/A speed=N/A elapsed=0:00:03.54    \nframe=    0 fps=0.0 q=0.0 size=       0KiB time=N/A bitrate=N/A speed=N/A elapsed=0:00:04.06    \nframe=    0 fps=0.0 q=0.0 size=       0KiB time=N/A bitrate=N/A speed=N/A elapsed=0:00:04.57    \nframe=    0 fps=0.0 q=0.0 size=       0KiB time=N/A bitrate=N/A speed=N/A elapsed=0:00:05.11    \nframe=    0 fps=0.0 q=0.0 size=       0KiB time=N/A bitrate=N/A speed=N/A elapsed=0:00:05.66    \nframe=    0 fps=0.0 q=0.0 size=       0KiB time=N/A bitrate=N/A speed=N/A elapsed=0:00:06.18    \nframe=    0 fps=0.0 q=0.0 size=       0KiB time=N/A bitrate=N/A speed=N/A elapsed=0:00:06.72    \nframe=    0 fps=0.0 q=0.0 size=       0KiB time=N/A bitrate=N/A speed=N/A elapsed=0:00:07.25    \nframe=    0 fps=0.0 q=0.0 size=       0KiB time=N/A bitrate=N/A speed=N/A elapsed=0:00:07.78    \nframe=    0 fps=0.0 q=0.0 size=       0KiB time=N/A bitrate=N/A speed=N/A elapsed=0:00:08.31    \nframe=    0 fps=0.0 q=0.0 size=       0KiB time=N/A bitrate=N/A speed=N/A elapsed=0:00:08.84    \nframe=    0 fps=0.0 q=0.0 size=       0KiB time=N/A bitrate=N/A speed=N/A elapsed=0:00:09.37    \nframe=    0 fps=0.0 q=0.0 size=       0KiB time=N/A bitrate=N/A speed=N/A elapsed=0:00:09.90    \nframe=    0 fps=0.0 q=0.0 size=       0KiB time=N/A bitrate=N/A speed=N/A elapsed=0:00:10.41    \nframe=    0 fps=0.0 q=0.0 size=       0KiB time=N/A bitrate=N/A speed=N/A elapsed=0:00:10.94    \nframe=    0 fps=0.0 q=0.0 size=       0KiB time=N/A bitrate=N/A speed=N/A elapsed=0:00:11.47    \nframe=    0 fps=0.0 q=0.0 size=       0KiB time=N/A bitrate=N/A speed=N/A elapsed=0:00:11.98    \nframe=    0 fps=0.0 q=0.0 size=       0KiB time=N/A bitrate=N/A speed=N/A elapsed=0:00:12.50    \nframe=    1 fps=0.1 q=41.3 size=       0KiB time=-00:00:00.03 bitrate=N/A speed=N/A elapsed=0:00:13.05    \nframe=    1 fps=0.1 q=41.3 size=       0KiB time=-00:00:00.03 bitrate=N/A speed=N/A elapsed=0:00:13.58    \nframe=    2 fps=0.1 q=47.0 size=       0KiB time=00:00:00.00 bitrate=N/A speed=   0x elapsed=0:00:14.09    \nframe=    2 fps=0.1 q=47.0 size=       0KiB time=00:00:00.00 bitrate=N/A speed=   0x elapsed=0:00:14.60    \nframe=    3 fps=0.2 q=50.7 size=       0KiB time=00:00:00.03 bitrate=  10.6kbits/s speed=0.0022x elapsed=0:00:15.15    \nframe=    3 fps=0.2 q=50.7 size=       0KiB time=00:00:00.03 bitrate=  10.6kbits/s speed=0.00213x elapsed=0:00:15.68    \nframe=    4 fps=0.2 q=51.0 size=       0KiB time=00:00:00.06 bitrate=   5.3kbits/s speed=0.00412x elapsed=0:00:16.19    \nframe=    4 fps=0.2 q=51.0 size=       0KiB time=00:00:00.06 bitrate=   5.3kbits/s speed=0.00398x elapsed=0:00:16.73    \nframe=    4 fps=0.2 q=51.0 size=       0KiB time=00:00:00.06 bitrate=   5.3kbits/s speed=0.00386x elapsed=0:00:17.26    \nframe=    5 fps=0.3 q=50.8 size=       0KiB time=00:00:00.10 bitrate=   3.5kbits/s speed=0.00562x elapsed=0:00:17.78    \nframe=    5 fps=0.3 q=50.8 size=       0KiB time=00:00:00.10 bitrate=   3.5kbits/s speed=0.00546x elapsed=0:00:18.33    \nframe=    5 fps=0.3 q=50.8 size=       0KiB time=00:00:00.10 bitrate=   3.5kbits/s speed=0.0053x elapsed=0:00:18.87    \nframe=    6 fps=0.3 q=49.7 size=       0KiB time=00:00:00.13 bitrate=   2.6kbits/s speed=0.00687x elapsed=0:00:19.40    \nframe=    6 fps=0.3 q=49.7 size=       0KiB time=00:00:00.13 bitrate=   2.6kbits/s speed=0.00669x elapsed=0:00:19.93    \nframe=    6 fps=0.3 q=49.7 size=       0KiB time=00:00:00.13 bitrate=   2.6kbits/s speed=0.00651x elapsed=0:00:20.47    \nframe=    8 fps=0.4 q=45.9 size=       0KiB time=00:00:00.20 bitrate=   1.8kbits/s speed=0.00953x elapsed=0:00:20.99    \nframe=    8 fps=0.4 q=45.9 size=       0KiB time=00:00:00.20 bitrate=   1.8kbits/s speed=0.0093x elapsed=0:00:21.51    \nframe=    8 fps=0.4 q=45.9 size=       0KiB time=00:00:00.20 bitrate=   1.8kbits/s speed=0.00908x elapsed=0:00:22.02    \nframe=    8 fps=0.4 q=45.9 size=       0KiB time=00:00:00.20 bitrate=   1.8kbits/s speed=0.00886x elapsed=0:00:22.57    \nframe=    9 fps=0.4 q=45.9 size=       0KiB time=00:00:00.23 bitrate=   1.5kbits/s speed=0.0101x elapsed=0:00:23.09    \nframe=   10 fps=0.4 q=47.0 size=       0KiB time=00:00:00.26 bitrate=   1.3kbits/s speed=0.0113x elapsed=0:00:23.61    \nframe=   10 fps=0.4 q=47.0 size=       0KiB time=00:00:00.26 bitrate=   1.3kbits/s speed=0.011x elapsed=0:00:24.14    \nframe=   10 fps=0.4 q=47.0 size=       0KiB time=00:00:00.26 bitrate=   1.3kbits/s speed=0.0108x elapsed=0:00:24.66    \nframe=   11 fps=0.4 q=40.0 size=       0KiB time=00:00:00.30 bitrate=   1.2kbits/s speed=0.0119x elapsed=0:00:25.18    \nframe=   12 fps=0.5 q=44.6 size=       0KiB time=00:00:00.33 bitrate=   1.1kbits/s speed=0.013x elapsed=0:00:25.69    \nframe=   12 fps=0.5 q=44.6 size=       0KiB time=00:00:00.33 bitrate=   1.1kbits/s speed=0.0127x elapsed=0:00:26.21    \nframe=   12 fps=0.4 q=44.6 size=       0KiB time=00:00:00.33 bitrate=   1.1kbits/s speed=0.0125x elapsed=0:00:26.74    \nframe=   13 fps=0.5 q=47.1 size=       0KiB time=00:00:00.36 bitrate=   1.0kbits/s speed=0.0134x elapsed=0:00:27.27    \nframe=   13 fps=0.5 q=47.1 size=       0KiB time=00:00:00.36 bitrate=   1.0kbits/s speed=0.0132x elapsed=0:00:27.85    \nframe=   13 fps=0.5 q=47.1 size=       0KiB time=00:00:00.36 bitrate=   1.0kbits/s speed=0.0129x elapsed=0:00:28.38    \nframe=   13 fps=0.4 q=47.1 size=       0KiB time=00:00:00.36 bitrate=   1.0kbits/s speed=0.0127x elapsed=0:00:28.90    \nframe=   13 fps=0.4 q=47.1 size=       0KiB time=00:00:00.36 bitrate=   1.0kbits/s speed=0.0125x elapsed=0:00:29.41    \nframe=   13 fps=0.4 q=47.1 size=       0KiB time=00:00:00.36 bitrate=   1.0kbits/s speed=0.0122x elapsed=0:00:29.93    \nframe=   14 fps=0.5 q=46.8 size=       0KiB time=00:00:00.40 bitrate=   0.9kbits/s speed=0.0131x elapsed=0:00:30.45    \nframe=   14 fps=0.5 q=46.8 size=       0KiB time=00:00:00.40 bitrate=   0.9kbits/s speed=0.0129x elapsed=0:00:30.96    \nframe=   15 fps=0.5 q=40.6 size=       0KiB time=00:00:00.43 bitrate=   0.8kbits/s speed=0.0138x elapsed=0:00:31.49    \nframe=   16 fps=0.5 q=43.9 size=       0KiB time=00:00:00.46 bitrate=   0.8kbits/s speed=0.0146x elapsed=0:00:32.02    \nframe=   16 fps=0.5 q=43.9 size=       0KiB time=00:00:00.46 bitrate=   0.8kbits/s speed=0.0143x elapsed=0:00:32.57    \nframe=   16 fps=0.5 q=43.9 size=       0KiB time=00:00:00.46 bitrate=   0.8kbits/s speed=0.0141x elapsed=0:00:33.10    \nframe=   17 fps=0.5 q=46.1 size=       0KiB time=00:00:00.50 bitrate=   0.7kbits/s speed=0.0149x elapsed=0:00:33.63    \nframe=   17 fps=0.5 q=46.1 size=       0KiB time=00:00:00.50 bitrate=   0.7kbits/s speed=0.0146x elapsed=0:00:34.17    \nframe=   17 fps=0.5 q=46.1 size=       0KiB time=00:00:00.50 bitrate=   0.7kbits/s speed=0.0144x elapsed=0:00:34.71    \nframe=   17 fps=0.5 q=46.1 size=       0KiB time=00:00:00.50 bitrate=   0.7kbits/s speed=0.0142x elapsed=0:00:35.26    \nframe=   17 fps=0.5 q=46.1 size=       0KiB time=00:00:00.50 bitrate=   0.7kbits/s speed=0.0139x elapsed=0:00:35.86    \nframe=   18 fps=0.5 q=46.7 size=       0KiB time=00:00:00.53 bitrate=   0.7kbits/s speed=0.0146x elapsed=0:00:36.45    \nframe=   18 fps=0.5 q=46.7 size=       0KiB time=00:00:00.53 bitrate=   0.7kbits/s speed=0.0144x elapsed=0:00:37.07    \nframe=   18 fps=0.5 q=46.7 size=       0KiB time=00:00:00.53 bitrate=   0.7kbits/s speed=0.0141x elapsed=0:00:37.69    \nframe=   18 fps=0.5 q=46.7 size=       0KiB time=00:00:00.53 bitrate=   0.7kbits/s speed=0.0139x elapsed=0:00:38.30    \nframe=   18 fps=0.5 q=46.7 size=       0KiB time=00:00:00.53 bitrate=   0.7kbits/s speed=0.0137x elapsed=0:00:38.83    \nframe=   18 fps=0.5 q=46.7 size=       0KiB time=00:00:00.53 bitrate=   0.7kbits/s speed=0.0135x elapsed=0:00:39.38    \nframe=   18 fps=0.5 q=46.7 size=       0KiB time=00:00:00.53 bitrate=   0.7kbits/s speed=0.0133x elapsed=0:00:39.96    \nframe=   19 fps=0.5 q=40.7 size=       0KiB time=00:00:00.56 bitrate=   0.6kbits/s speed=0.014x elapsed=0:00:40.49    \nframe=   19 fps=0.5 q=40.7 size=       0KiB time=00:00:00.56 bitrate=   0.6kbits/s speed=0.0138x elapsed=0:00:41.02    \nframe=   20 fps=0.5 q=44.2 size=       0KiB time=00:00:00.60 bitrate=   0.6kbits/s speed=0.0144x elapsed=0:00:41.58    \nframe=   20 fps=0.5 q=44.2 size=       0KiB time=00:00:00.60 bitrate=   0.6kbits/s speed=0.0142x elapsed=0:00:42.10    \nframe=   20 fps=0.5 q=44.2 size=       0KiB time=00:00:00.60 bitrate=   0.6kbits/s speed=0.0141x elapsed=0:00:42.67    \nframe=   20 fps=0.5 q=44.2 size=       0KiB time=00:00:00.60 bitrate=   0.6kbits/s speed=0.0139x elapsed=0:00:43.19    \nframe=   20 fps=0.5 q=44.2 size=       0KiB time=00:00:00.60 bitrate=   0.6kbits/s speed=0.0137x elapsed=0:00:43.71    \nframe=   21 fps=0.5 q=46.8 size=       0KiB time=00:00:00.63 bitrate=   0.6kbits/s speed=0.0143x elapsed=0:00:44.24    \nframe=   22 fps=0.5 q=46.7 size=       0KiB time=00:00:00.66 bitrate=   0.5kbits/s speed=0.0149x elapsed=0:00:44.75    \nframe=   22 fps=0.5 q=46.7 size=       0KiB time=00:00:00.66 bitrate=   0.5kbits/s speed=0.0147x elapsed=0:00:45.28    \nframe=   23 fps=0.5 q=40.7 size=       0KiB time=00:00:00.70 bitrate=   0.5kbits/s speed=0.0153x elapsed=0:00:45.85    \nframe=   24 fps=0.5 q=44.2 size=       0KiB time=00:00:00.73 bitrate=   0.5kbits/s speed=0.0158x elapsed=0:00:46.37    \nframe=   24 fps=0.5 q=44.2 size=       0KiB time=00:00:00.73 bitrate=   0.5kbits/s speed=0.0156x elapsed=0:00:46.90    \nframe=   25 fps=0.5 q=46.7 size=       0KiB time=00:00:00.76 bitrate=   0.5kbits/s speed=0.0162x elapsed=0:00:47.42    \nframe=   25 fps=0.5 q=46.7 size=       0KiB time=00:00:00.76 bitrate=   0.5kbits/s speed=0.016x elapsed=0:00:47.94    \nframe=   25 fps=0.5 q=46.7 size=       0KiB time=00:00:00.76 bitrate=   0.5kbits/s speed=0.0158x elapsed=0:00:48.45    \nframe=   26 fps=0.5 q=46.7 size=       0KiB time=00:00:00.80 bitrate=   0.4kbits/s speed=0.0163x elapsed=0:00:48.97    \nframe=   26 fps=0.5 q=46.7 size=       0KiB time=00:00:00.80 bitrate=   0.4kbits/s speed=0.0162x elapsed=0:00:49.49    \nframe=   26 fps=0.5 q=46.7 size=       0KiB time=00:00:00.80 bitrate=   0.4kbits/s speed=0.016x elapsed=0:00:50.00    \nframe=   28 fps=0.6 q=44.1 size=       0KiB time=00:00:00.86 bitrate=   0.4kbits/s speed=0.0172x elapsed=0:00:50.51    \nframe=   28 fps=0.5 q=44.1 size=       0KiB time=00:00:00.86 bitrate=   0.4kbits/s speed=0.017x elapsed=0:00:51.03    \nframe=   28 fps=0.5 q=44.1 size=       0KiB time=00:00:00.86 bitrate=   0.4kbits/s speed=0.0168x elapsed=0:00:51.55    \nframe=   29 fps=0.6 q=46.7 size=       0KiB time=00:00:00.90 bitrate=   0.4kbits/s speed=0.0173x elapsed=0:00:52.07    \nframe=   29 fps=0.6 q=46.7 size=       0KiB time=00:00:00.90 bitrate=   0.4kbits/s speed=0.0171x elapsed=0:00:52.64    \nframe=   29 fps=0.5 q=46.7 size=       0KiB time=00:00:00.90 bitrate=   0.4kbits/s speed=0.0169x elapsed=0:00:53.16    \nframe=   29 fps=0.5 q=46.7 size=       0KiB time=00:00:00.90 bitrate=   0.4kbits/s speed=0.0168x elapsed=0:00:53.68    \nframe=   29 fps=0.5 q=46.7 size=       0KiB time=00:00:00.90 bitrate=   0.4kbits/s speed=0.0166x elapsed=0:00:54.20    \nframe=   29 fps=0.5 q=46.7 size=       0KiB time=00:00:00.90 bitrate=   0.4kbits/s speed=0.0164x elapsed=0:00:54.71    \nframe=   30 fps=0.5 q=46.7 size=       0KiB time=00:00:00.93 bitrate=   0.4kbits/s speed=0.0169x elapsed=0:00:55.23    \nframe=   30 fps=0.5 q=46.7 size=       0KiB time=00:00:00.93 bitrate=   0.4kbits/s speed=0.0167x elapsed=0:00:55.74    \nframe=   30 fps=0.5 q=46.7 size=       0KiB time=00:00:00.93 bitrate=   0.4kbits/s speed=0.0166x elapsed=0:00:56.28    \nframe=   30 fps=0.5 q=46.7 size=       0KiB time=00:00:00.93 bitrate=   0.4kbits/s speed=0.0164x elapsed=0:00:56.80    \nframe=   31 fps=0.5 q=40.7 size=       0KiB time=00:00:00.96 bitrate=   0.4kbits/s speed=0.0169x elapsed=0:00:57.32    \nframe=   32 fps=0.6 q=44.4 size=     256KiB time=00:00:01.00 bitrate=2097.5kbits/s speed=0.0173x elapsed=0:00:57.84    \nframe=   32 fps=0.5 q=44.4 size=     256KiB time=00:00:01.00 bitrate=2097.5kbits/s speed=0.0171x elapsed=0:00:58.38    \nframe=   32 fps=0.5 q=44.4 size=     256KiB time=00:00:01.00 bitrate=2097.5kbits/s speed=0.017x elapsed=0:00:58.90    \nframe=   32 fps=0.5 q=44.4 size=     256KiB time=00:00:01.00 bitrate=2097.5kbits/s speed=0.0168x elapsed=0:00:59.42    \nframe=   33 fps=0.6 q=46.8 size=     256KiB time=00:00:01.03 bitrate=2029.8kbits/s speed=0.0172x elapsed=0:00:59.94    \nframe=   33 fps=0.5 q=46.8 size=     256KiB time=00:00:01.03 bitrate=2029.8kbits/s speed=0.0171x elapsed=0:01:00.49    \nframe=   33 fps=0.5 q=46.8 size=     256KiB time=00:00:01.03 bitrate=2029.8kbits/s speed=0.0169x elapsed=0:01:01.02    \nframe=   33 fps=0.5 q=46.8 size=     256KiB time=00:00:01.03 bitrate=2029.8kbits/s speed=0.0168x elapsed=0:01:01.56    \nframe=   34 fps=0.5 q=46.9 size=     256KiB time=00:00:01.06 bitrate=1966.4kbits/s speed=0.0172x elapsed=0:01:02.09    \nframe=   34 fps=0.5 q=46.9 size=     256KiB time=00:00:01.06 bitrate=1966.4kbits/s speed=0.017x elapsed=0:01:02.61    \nframe=   34 fps=0.5 q=46.9 size=     256KiB time=00:00:01.06 bitrate=1966.4kbits/s speed=0.0169x elapsed=0:01:03.13    \nframe=   34 fps=0.5 q=46.9 size=     256KiB time=00:00:01.06 bitrate=1966.4kbits/s speed=0.0167x elapsed=0:01:03.68    \nframe=   35 fps=0.5 q=40.7 size=     256KiB time=00:00:01.10 bitrate=1906.8kbits/s speed=0.0171x elapsed=0:01:04.22    \nframe=   36 fps=0.6 q=44.3 size=     256KiB time=00:00:01.13 bitrate=1850.7kbits/s speed=0.0175x elapsed=0:01:04.75    \nframe=   36 fps=0.6 q=44.3 size=     256KiB time=00:00:01.13 bitrate=1850.7kbits/s speed=0.0174x elapsed=0:01:05.27    \nframe=   37 fps=0.6 q=46.8 size=     256KiB time=00:00:01.13 bitrate=1850.7kbits/s speed=0.0172x elapsed=0:01:05.80    \nframe=   37 fps=0.6 q=46.8 size=     256KiB time=00:00:01.16 bitrate=1797.9kbits/s speed=0.0176x elapsed=0:01:06.34    \nframe=   37 fps=0.6 q=46.8 size=     256KiB time=00:00:01.16 bitrate=1797.9kbits/s speed=0.0174x elapsed=0:01:06.88    \nframe=   37 fps=0.5 q=46.8 size=     256KiB time=00:00:01.16 bitrate=1797.9kbits/s speed=0.0173x elapsed=0:01:07.40    \nframe=   38 fps=0.6 q=46.9 size=     256KiB time=00:00:01.20 bitrate=1747.9kbits/s speed=0.0177x elapsed=0:01:07.96    \nframe=   38 fps=0.6 q=46.9 size=     256KiB time=00:00:01.20 bitrate=1747.9kbits/s speed=0.0175x elapsed=0:01:08.48    \nframe=   38 fps=0.6 q=46.9 size=     256KiB time=00:00:01.20 bitrate=1747.9kbits/s speed=0.0174x elapsed=0:01:09.00    \nframe=   38 fps=0.5 q=46.9 size=     256KiB time=00:00:01.20 bitrate=1747.9kbits/s speed=0.0173x elapsed=0:01:09.52    \nframe=   39 fps=0.6 q=40.7 size=     256KiB time=00:00:01.23 bitrate=1700.7kbits/s speed=0.0176x elapsed=0:01:10.04    \nframe=   40 fps=0.6 q=44.2 size=     256KiB time=00:00:01.26 bitrate=1655.9kbits/s speed=0.018x elapsed=0:01:10.56    \nframe=   40 fps=0.6 q=44.2 size=     256KiB time=00:00:01.26 bitrate=1655.9kbits/s speed=0.0178x elapsed=0:01:11.08    \nframe=   40 fps=0.6 q=44.2 size=     256KiB time=00:00:01.26 bitrate=1655.9kbits/s speed=0.0177x elapsed=0:01:11.61    \nframe=   41 fps=0.6 q=46.8 size=     256KiB time=00:00:01.30 bitrate=1613.5kbits/s speed=0.018x elapsed=0:01:12.13    \nframe=   41 fps=0.6 q=46.8 size=     256KiB time=00:00:01.30 bitrate=1613.5kbits/s speed=0.0179x elapsed=0:01:12.71    \nframe=   41 fps=0.6 q=46.8 size=     256KiB time=00:00:01.30 bitrate=1613.5kbits/s speed=0.0177x elapsed=0:01:13.32    \nframe=   41 fps=0.6 q=46.8 size=     256KiB time=00:00:01.30 bitrate=1613.5kbits/s speed=0.0176x elapsed=0:01:13.95    \nframe=   41 fps=0.5 q=46.8 size=     256KiB time=00:00:01.30 bitrate=1613.5kbits/s speed=0.0174x elapsed=0:01:14.56    \nframe=   41 fps=0.5 q=46.8 size=     256KiB time=00:00:01.30 bitrate=1613.5kbits/s speed=0.0173x elapsed=0:01:15.19    \nframe=   41 fps=0.5 q=46.8 size=     256KiB time=00:00:01.30 bitrate=1613.5kbits/s speed=0.0172x elapsed=0:01:15.72    \nframe=   42 fps=0.6 q=46.7 size=     256KiB time=00:00:01.33 bitrate=1573.1kbits/s speed=0.0175x elapsed=0:01:16.32    \nframe=   42 fps=0.5 q=46.7 size=     256KiB time=00:00:01.33 bitrate=1573.1kbits/s speed=0.0173x elapsed=0:01:16.86    \nframe=   42 fps=0.5 q=46.7 size=     256KiB time=00:00:01.33 bitrate=1573.1kbits/s speed=0.0172x elapsed=0:01:17.43    \nframe=   42 fps=0.5 q=46.7 size=     256KiB time=00:00:01.33 bitrate=1573.1kbits/s speed=0.0171x elapsed=0:01:18.05    \nframe=   42 fps=0.5 q=46.7 size=     256KiB time=00:00:01.33 bitrate=1573.1kbits/s speed=0.0169x elapsed=0:01:18.68    \nframe=   42 fps=0.5 q=46.7 size=     256KiB time=00:00:01.33 bitrate=1573.1kbits/s speed=0.0168x elapsed=0:01:19.25    \nframe=   43 fps=0.5 q=40.7 size=     256KiB time=00:00:01.36 bitrate=1534.8kbits/s speed=0.0171x elapsed=0:01:19.81    \nframe=   43 fps=0.5 q=40.7 size=     256KiB time=00:00:01.36 bitrate=1534.8kbits/s speed=0.017x elapsed=0:01:20.33    \nframe=   43 fps=0.5 q=40.7 size=     256KiB time=00:00:01.36 bitrate=1534.8kbits/s speed=0.0169x elapsed=0:01:20.85    \nframe=   43 fps=0.5 q=40.7 size=     256KiB time=00:00:01.36 bitrate=1534.8kbits/s speed=0.0168x elapsed=0:01:21.39    \nframe=   44 fps=0.5 q=44.2 size=     256KiB time=00:00:01.40 bitrate=1498.2kbits/s speed=0.0171x elapsed=0:01:21.94    \nframe=   44 fps=0.5 q=44.2 size=     256KiB time=00:00:01.40 bitrate=1498.2kbits/s speed=0.017x elapsed=0:01:22.46    \nframe=   44 fps=0.5 q=44.2 size=     256KiB time=00:00:01.40 bitrate=1498.2kbits/s speed=0.0169x elapsed=0:01:23.02    \nframe=   44 fps=0.5 q=44.2 size=     256KiB time=00:00:01.40 bitrate=1498.2kbits/s speed=0.0168x elapsed=0:01:23.55    \nframe=   45 fps=0.5 q=46.9 size=     256KiB time=00:00:01.43 bitrate=1463.4kbits/s speed=0.017x elapsed=0:01:24.09    \nframe=   45 fps=0.5 q=46.9 size=     256KiB time=00:00:01.43 bitrate=1463.4kbits/s speed=0.0169x elapsed=0:01:24.61    \nframe=   45 fps=0.5 q=46.9 size=     256KiB time=00:00:01.43 bitrate=1463.4kbits/s speed=0.0168x elapsed=0:01:25.13    \nframe=   46 fps=0.5 q=46.7 size=     256KiB time=00:00:01.46 bitrate=1430.1kbits/s speed=0.0171x elapsed=0:01:25.67    \nframe=   46 fps=0.5 q=46.7 size=     256KiB time=00:00:01.46 bitrate=1430.1kbits/s speed=0.017x elapsed=0:01:26.22    \nframe=   46 fps=0.5 q=46.7 size=     256KiB time=00:00:01.46 bitrate=1430.1kbits/s speed=0.0169x elapsed=0:01:26.72    \nframe=   46 fps=0.5 q=46.7 size=     256KiB time=00:00:01.46 bitrate=1430.1kbits/s speed=0.0168x elapsed=0:01:27.25    \nframe=   47 fps=0.5 q=40.7 size=     256KiB time=00:00:01.50 bitrate=1398.3kbits/s speed=0.0171x elapsed=0:01:27.77    \nframe=   48 fps=0.5 q=44.3 size=     256KiB time=00:00:01.53 bitrate=1367.9kbits/s speed=0.0174x elapsed=0:01:28.29    \nframe=   48 fps=0.5 q=44.3 size=     256KiB time=00:00:01.53 bitrate=1367.9kbits/s speed=0.0173x elapsed=0:01:28.82    \nframe=   49 fps=0.5 q=46.8 size=     256KiB time=00:00:01.56 bitrate=1338.8kbits/s speed=0.0175x elapsed=0:01:29.33    \nframe=   49 fps=0.5 q=46.8 size=     256KiB time=00:00:01.56 bitrate=1338.8kbits/s speed=0.0174x elapsed=0:01:29.85    \nframe=   49 fps=0.5 q=46.8 size=     256KiB time=00:00:01.56 bitrate=1338.8kbits/s speed=0.0173x elapsed=0:01:30.38    \nframe=   50 fps=0.6 q=46.8 size=     256KiB time=00:00:01.60 bitrate=1310.9kbits/s speed=0.0176x elapsed=0:01:30.90    \nframe=   50 fps=0.5 q=46.8 size=     256KiB time=00:00:01.60 bitrate=1310.9kbits/s speed=0.0175x elapsed=0:01:31.42    \nframe=   50 fps=0.5 q=46.8 size=     256KiB time=00:00:01.60 bitrate=1310.9kbits/s speed=0.0174x elapsed=0:01:31.96    \nframe=   51 fps=0.6 q=40.7 size=     256KiB time=00:00:01.63 bitrate=1284.2kbits/s speed=0.0177x elapsed=0:01:32.48    \nframe=   52 fps=0.6 q=44.5 size=     256KiB time=00:00:01.66 bitrate=1258.5kbits/s speed=0.0179x elapsed=0:01:33.00    \nframe=   53 fps=0.6 q=46.6 size=     256KiB time=00:00:01.70 bitrate=1233.8kbits/s speed=0.0182x elapsed=0:01:33.51    \nframe=   53 fps=0.6 q=46.6 size=     256KiB time=00:00:01.70 bitrate=1233.8kbits/s speed=0.0181x elapsed=0:01:34.03    \nframe=   53 fps=0.6 q=46.6 size=     256KiB time=00:00:01.70 bitrate=1233.8kbits/s speed=0.018x elapsed=0:01:34.55    \nframe=   54 fps=0.6 q=46.7 size=     256KiB time=00:00:01.73 bitrate=1210.1kbits/s speed=0.0182x elapsed=0:01:35.07    \nframe=   55 fps=0.6 q=40.8 size=     256KiB time=00:00:01.76 bitrate=1187.3kbits/s speed=0.0185x elapsed=0:01:35.60    \nframe=   56 fps=0.6 q=44.1 size=     256KiB time=00:00:01.80 bitrate=1165.3kbits/s speed=0.0187x elapsed=0:01:36.14    \nframe=   56 fps=0.6 q=44.1 size=     256KiB time=00:00:01.80 bitrate=1165.3kbits/s speed=0.0186x elapsed=0:01:36.70    \nframe=   56 fps=0.6 q=44.1 size=     256KiB time=00:00:01.80 bitrate=1165.3kbits/s speed=0.0185x elapsed=0:01:37.21    \nframe=   56 fps=0.6 q=44.1 size=     256KiB time=00:00:01.80 bitrate=1165.3kbits/s speed=0.0184x elapsed=0:01:37.74    \nframe=   57 fps=0.6 q=46.6 size=     256KiB time=00:00:01.83 bitrate=1144.1kbits/s speed=0.0187x elapsed=0:01:38.28    \nframe=   57 fps=0.6 q=46.6 size=     256KiB time=00:00:01.83 bitrate=1144.1kbits/s speed=0.0186x elapsed=0:01:38.81    \nframe=   57 fps=0.6 q=46.6 size=     256KiB time=00:00:01.83 bitrate=1144.1kbits/s speed=0.0185x elapsed=0:01:39.34    \nframe=   58 fps=0.6 q=46.8 size=     256KiB time=00:00:01.86 bitrate=1123.7kbits/s speed=0.0187x elapsed=0:01:39.88    \nframe=   59 fps=0.6 q=40.9 size=     256KiB time=00:00:01.90 bitrate=1103.9kbits/s speed=0.0189x elapsed=0:01:40.40    \nframe=   60 fps=0.6 q=44.5 size=     256KiB time=00:00:01.93 bitrate=1084.9kbits/s speed=0.0192x elapsed=0:01:40.95    \nframe=   61 fps=0.6 q=46.8 size=     256KiB time=00:00:01.96 bitrate=1066.5kbits/s speed=0.0194x elapsed=0:01:41.51    \nframe=   62 fps=0.6 q=46.8 size=     256KiB time=00:00:02.00 bitrate=1048.8kbits/s speed=0.0196x elapsed=0:01:42.07    \nframe=   62 fps=0.6 q=46.8 size=     256KiB time=00:00:02.00 bitrate=1048.8kbits/s speed=0.0195x elapsed=0:01:42.61    \nframe=   62 fps=0.6 q=46.8 size=     256KiB time=00:00:02.00 bitrate=1048.8kbits/s speed=0.0194x elapsed=0:01:43.13    \nframe=   62 fps=0.6 q=46.8 size=     256KiB time=00:00:02.00 bitrate=1048.8kbits/s speed=0.0193x elapsed=0:01:43.67    \nframe=   62 fps=0.6 q=46.8 size=     256KiB time=00:00:02.00 bitrate=1048.8kbits/s speed=0.0192x elapsed=0:01:44.21    \nframe=   63 fps=0.6 q=40.8 size=     256KiB time=00:00:02.03 bitrate=1031.6kbits/s speed=0.0194x elapsed=0:01:44.77    \nframe=   64 fps=0.6 q=44.4 size=     512KiB time=00:00:02.06 bitrate=2029.7kbits/s speed=0.0196x elapsed=0:01:45.36    \nframe=   64 fps=0.6 q=44.4 size=     512KiB time=00:00:02.06 bitrate=2029.7kbits/s speed=0.0195x elapsed=0:01:45.90    \nframe=   64 fps=0.6 q=44.4 size=     512KiB time=00:00:02.06 bitrate=2029.7kbits/s speed=0.0194x elapsed=0:01:46.54    \nframe=   65 fps=0.6 q=46.9 size=     512KiB time=00:00:02.10 bitrate=1997.5kbits/s speed=0.0196x elapsed=0:01:47.21    \nframe=   65 fps=0.6 q=46.9 size=     512KiB time=00:00:02.10 bitrate=1997.5kbits/s speed=0.0195x elapsed=0:01:47.81    \nframe=   65 fps=0.6 q=46.9 size=     512KiB time=00:00:02.10 bitrate=1997.5kbits/s speed=0.0194x elapsed=0:01:48.39    \nframe=   65 fps=0.6 q=46.9 size=     512KiB time=00:00:02.10 bitrate=1997.5kbits/s speed=0.0193x elapsed=0:01:49.02    \nframe=   66 fps=0.6 q=46.5 size=     512KiB time=00:00:02.13 bitrate=1966.2kbits/s speed=0.0195x elapsed=0:01:49.59    \nframe=   66 fps=0.6 q=46.5 size=     512KiB time=00:00:02.13 bitrate=1966.2kbits/s speed=0.0194x elapsed=0:01:50.16    \nframe=   66 fps=0.6 q=46.5 size=     512KiB time=00:00:02.13 bitrate=1966.2kbits/s speed=0.0193x elapsed=0:01:50.70    \nframe=   66 fps=0.6 q=46.5 size=     512KiB time=00:00:02.13 bitrate=1966.2kbits/s speed=0.0192x elapsed=0:01:51.23    \nframe=   66 fps=0.6 q=46.5 size=     512KiB time=00:00:02.13 bitrate=1966.2kbits/s speed=0.0191x elapsed=0:01:51.75    \nframe=   66 fps=0.6 q=46.5 size=     512KiB time=00:00:02.13 bitrate=1966.2kbits/s speed=0.019x elapsed=0:01:52.26    \nframe=   66 fps=0.6 q=46.5 size=     512KiB time=00:00:02.13 bitrate=1966.2kbits/s speed=0.0189x elapsed=0:01:52.79    \nframe=   67 fps=0.6 q=40.5 size=     512KiB time=00:00:02.16 bitrate=1936.0kbits/s speed=0.0191x elapsed=0:01:53.37    \nframe=   67 fps=0.6 q=40.5 size=     512KiB time=00:00:02.16 bitrate=1936.0kbits/s speed=0.019x elapsed=0:01:53.89    \nframe=   67 fps=0.6 q=40.5 size=     512KiB time=00:00:02.16 bitrate=1936.0kbits/s speed=0.0189x elapsed=0:01:54.51    \nframe=   67 fps=0.6 q=40.5 size=     512KiB time=00:00:02.16 bitrate=1936.0kbits/s speed=0.0188x elapsed=0:01:55.10    \nframe=   67 fps=0.6 q=40.5 size=     512KiB time=00:00:02.16 bitrate=1936.0kbits/s speed=0.0187x elapsed=0:01:55.69    \nframe=   67 fps=0.6 q=40.5 size=     512KiB time=00:00:02.16 bitrate=1936.0kbits/s speed=0.0186x elapsed=0:01:56.23    \nframe=   67 fps=0.6 q=40.5 size=     512KiB time=00:00:02.16 bitrate=1936.0kbits/s speed=0.0185x elapsed=0:01:56.88    \nframe=   67 fps=0.6 q=40.5 size=     512KiB time=00:00:02.16 bitrate=1936.0kbits/s speed=0.0185x elapsed=0:01:57.42    \nframe=   67 fps=0.6 q=40.5 size=     512KiB time=00:00:02.16 bitrate=1936.0kbits/s speed=0.0184x elapsed=0:01:58.03    \nframe=   67 fps=0.6 q=40.5 size=     512KiB time=00:00:02.16 bitrate=1936.0kbits/s speed=0.0183x elapsed=0:01:58.61    \nframe=   67 fps=0.6 q=40.5 size=     512KiB time=00:00:02.16 bitrate=1936.0kbits/s speed=0.0182x elapsed=0:01:59.24    \nframe=   67 fps=0.6 q=40.5 size=     512KiB time=00:00:02.16 bitrate=1936.0kbits/s speed=0.0181x elapsed=0:01:59.82    \nframe=   67 fps=0.6 q=40.5 size=     512KiB time=00:00:02.16 bitrate=1936.0kbits/s speed=0.018x elapsed=0:02:00.41    \nframe=   67 fps=0.6 q=40.5 size=     512KiB time=00:00:02.16 bitrate=1936.0kbits/s speed=0.0179x elapsed=0:02:01.00    \nframe=   67 fps=0.6 q=40.5 size=     512KiB time=00:00:02.16 bitrate=1936.0kbits/s speed=0.0178x elapsed=0:02:01.51    \nframe=   67 fps=0.5 q=40.5 size=     512KiB time=00:00:02.16 bitrate=1936.0kbits/s speed=0.0177x elapsed=0:02:02.10    \nframe=   67 fps=0.5 q=40.5 size=     512KiB time=00:00:02.16 bitrate=1936.0kbits/s speed=0.0177x elapsed=0:02:02.63    \nframe=   67 fps=0.5 q=40.5 size=     512KiB time=00:00:02.16 bitrate=1936.0kbits/s speed=0.0176x elapsed=0:02:03.15    \nframe=   67 fps=0.5 q=40.5 size=     512KiB time=00:00:02.16 bitrate=1936.0kbits/s speed=0.0175x elapsed=0:02:03.67    \nframe=   67 fps=0.5 q=40.5 size=     512KiB time=00:00:02.16 bitrate=1936.0kbits/s speed=0.0174x elapsed=0:02:04.28    \nframe=   67 fps=0.5 q=40.5 size=     512KiB time=00:00:02.16 bitrate=1936.0kbits/s speed=0.0174x elapsed=0:02:04.81    \nframe=   67 fps=0.5 q=40.5 size=     512KiB time=00:00:02.16 bitrate=1936.0kbits/s speed=0.0173x elapsed=0:02:05.35    \nframe=   67 fps=0.5 q=40.5 size=     512KiB time=00:00:02.16 bitrate=1936.0kbits/s speed=0.0172x elapsed=0:02:05.96    \nframe=   67 fps=0.5 q=40.5 size=     512KiB time=00:00:02.16 bitrate=1936.0kbits/s speed=0.0171x elapsed=0:02:06.47    \nframe=   67 fps=0.5 q=40.5 size=     512KiB time=00:00:02.16 bitrate=1936.0kbits/s speed=0.0171x elapsed=0:02:07.00    \nframe=   68 fps=0.5 q=44.1 size=     512KiB time=00:00:02.20 bitrate=1906.7kbits/s speed=0.0173x elapsed=0:02:07.51    \nframe=   68 fps=0.5 q=44.1 size=     512KiB time=00:00:02.20 bitrate=1906.7kbits/s speed=0.0172x elapsed=0:02:08.07    \nframe=   68 fps=0.5 q=44.1 size=     512KiB time=00:00:02.20 bitrate=1906.7kbits/s speed=0.0171x elapsed=0:02:08.61    \nframe=   69 fps=0.5 q=46.4 size=     512KiB time=00:00:02.23 bitrate=1878.2kbits/s speed=0.0173x elapsed=0:02:09.13    \nframe=   69 fps=0.5 q=46.4 size=     512KiB time=00:00:02.23 bitrate=1878.2kbits/s speed=0.0172x elapsed=0:02:09.65    \nframe=   70 fps=0.5 q=46.7 size=     512KiB time=00:00:02.26 bitrate=1850.6kbits/s speed=0.0174x elapsed=0:02:10.22    \nframe=   70 fps=0.5 q=46.7 size=     512KiB time=00:00:02.26 bitrate=1850.6kbits/s speed=0.0173x elapsed=0:02:10.75    \nframe=   71 fps=0.5 q=40.8 size=     512KiB time=00:00:02.30 bitrate=1823.8kbits/s speed=0.0175x elapsed=0:02:11.27    \nframe=   71 fps=0.5 q=40.8 size=     512KiB time=00:00:02.30 bitrate=1823.8kbits/s speed=0.0174x elapsed=0:02:11.89    \nframe=   71 fps=0.5 q=40.8 size=     512KiB time=00:00:02.30 bitrate=1823.8kbits/s speed=0.0174x elapsed=0:02:12.47    \nframe=   71 fps=0.5 q=40.8 size=     512KiB time=00:00:02.30 bitrate=1823.8kbits/s speed=0.0173x elapsed=0:02:13.00    \nframe=   71 fps=0.5 q=40.8 size=     512KiB time=00:00:02.30 bitrate=1823.8kbits/s speed=0.0172x elapsed=0:02:13.51    \nframe=   71 fps=0.5 q=40.8 size=     512KiB time=00:00:02.30 bitrate=1823.8kbits/s speed=0.0172x elapsed=0:02:14.06    \nframe=   71 fps=0.5 q=40.8 size=     512KiB time=00:00:02.30 bitrate=1823.8kbits/s speed=0.0171x elapsed=0:02:14.60    \nframe=   72 fps=0.5 q=44.3 size=     512KiB time=00:00:02.33 bitrate=1797.7kbits/s speed=0.0173x elapsed=0:02:15.12    \nframe=   72 fps=0.5 q=44.3 size=     512KiB time=00:00:02.33 bitrate=1797.7kbits/s speed=0.0172x elapsed=0:02:15.66    \nframe=   73 fps=0.5 q=46.3 size=     512KiB time=00:00:02.36 bitrate=1772.4kbits/s speed=0.0174x elapsed=0:02:16.21    \nframe=   74 fps=0.5 q=46.6 size=     512KiB time=00:00:02.40 bitrate=1747.8kbits/s speed=0.0175x elapsed=0:02:16.76    \nframe=   74 fps=0.5 q=46.6 size=     512KiB time=00:00:02.40 bitrate=1747.8kbits/s speed=0.0175x elapsed=0:02:17.30    \nframe=   74 fps=0.5 q=46.6 size=     512KiB time=00:00:02.40 bitrate=1747.8kbits/s speed=0.0174x elapsed=0:02:17.86    \nframe=   74 fps=0.5 q=46.6 size=     512KiB time=00:00:02.40 bitrate=1747.8kbits/s speed=0.0173x elapsed=0:02:18.37    \nframe=   74 fps=0.5 q=46.6 size=     512KiB time=00:00:02.40 bitrate=1747.8kbits/s speed=0.0173x elapsed=0:02:18.92    \nframe=   75 fps=0.5 q=40.8 size=     512KiB time=00:00:02.43 bitrate=1723.8kbits/s speed=0.0174x elapsed=0:02:19.52    \nframe=   75 fps=0.5 q=40.8 size=     512KiB time=00:00:02.43 bitrate=1723.8kbits/s speed=0.0174x elapsed=0:02:20.09    \nframe=   75 fps=0.5 q=40.8 size=     512KiB time=00:00:02.43 bitrate=1723.8kbits/s speed=0.0173x elapsed=0:02:20.73    \nframe=   75 fps=0.5 q=40.8 size=     512KiB time=00:00:02.43 bitrate=1723.8kbits/s speed=0.0172x elapsed=0:02:21.36    \nframe=   75 fps=0.5 q=40.8 size=     512KiB time=00:00:02.43 bitrate=1723.8kbits/s speed=0.0171x elapsed=0:02:21.94    \nframe=   75 fps=0.5 q=40.8 size=     512KiB time=00:00:02.43 bitrate=1723.8kbits/s speed=0.0171x elapsed=0:02:22.49    \nframe=   75 fps=0.5 q=40.8 size=     512KiB time=00:00:02.43 bitrate=1723.8kbits/s speed=0.017x elapsed=0:02:23.02    \nframe=   76 fps=0.5 q=44.3 size=     512KiB time=00:00:02.46 bitrate=1700.5kbits/s speed=0.0172x elapsed=0:02:23.60    \nframe=   76 fps=0.5 q=44.3 size=     512KiB time=00:00:02.46 bitrate=1700.5kbits/s speed=0.0171x elapsed=0:02:24.13    \nframe=   76 fps=0.5 q=44.3 size=     512KiB time=00:00:02.46 bitrate=1700.5kbits/s speed=0.0171x elapsed=0:02:24.65    \nframe=   76 fps=0.5 q=44.3 size=     512KiB time=00:00:02.46 bitrate=1700.5kbits/s speed=0.017x elapsed=0:02:25.22    \nframe=   76 fps=0.5 q=44.3 size=     512KiB time=00:00:02.46 bitrate=1700.5kbits/s speed=0.0169x elapsed=0:02:25.78    \nframe=   77 fps=0.5 q=46.6 size=     512KiB time=00:00:02.50 bitrate=1677.9kbits/s speed=0.0171x elapsed=0:02:26.33    \nframe=   77 fps=0.5 q=46.6 size=     512KiB time=00:00:02.50 bitrate=1677.9kbits/s speed=0.017x elapsed=0:02:26.92    \nframe=   77 fps=0.5 q=46.6 size=     512KiB time=00:00:02.50 bitrate=1677.9kbits/s speed=0.0169x elapsed=0:02:27.50    \nframe=   77 fps=0.5 q=46.6 size=     512KiB time=00:00:02.50 bitrate=1677.9kbits/s speed=0.0169x elapsed=0:02:28.02    \nframe=   78 fps=0.5 q=46.6 size=     512KiB time=00:00:02.53 bitrate=1655.8kbits/s speed=0.017x elapsed=0:02:28.60    \nframe=   79 fps=0.5 q=40.7 size=     512KiB time=00:00:02.56 bitrate=1634.3kbits/s speed=0.0172x elapsed=0:02:29.13    \nframe=   79 fps=0.5 q=40.7 size=     512KiB time=00:00:02.56 bitrate=1634.3kbits/s speed=0.0171x elapsed=0:02:29.69    \nframe=   79 fps=0.5 q=40.7 size=     512KiB time=00:00:02.56 bitrate=1634.3kbits/s speed=0.0171x elapsed=0:02:30.22    \nframe=   79 fps=0.5 q=40.7 size=     512KiB time=00:00:02.56 bitrate=1634.3kbits/s speed=0.017x elapsed=0:02:30.79    \nframe=   79 fps=0.5 q=40.7 size=     512KiB time=00:00:02.56 bitrate=1634.3kbits/s speed=0.017x elapsed=0:02:31.32    \nframe=   80 fps=0.5 q=43.8 size=     512KiB time=00:00:02.60 bitrate=1613.3kbits/s speed=0.0171x elapsed=0:02:31.84    \nframe=   80 fps=0.5 q=43.8 size=     512KiB time=00:00:02.60 bitrate=1613.3kbits/s speed=0.0171x elapsed=0:02:32.36    \nframe=   80 fps=0.5 q=43.8 size=     512KiB time=00:00:02.60 bitrate=1613.3kbits/s speed=0.017x elapsed=0:02:32.91    \nframe=   80 fps=0.5 q=43.8 size=     512KiB time=00:00:02.60 bitrate=1613.3kbits/s speed=0.0169x elapsed=0:02:33.45    \nframe=   81 fps=0.5 q=46.3 size=     512KiB time=00:00:02.63 bitrate=1592.9kbits/s speed=0.0171x elapsed=0:02:33.97    \nframe=   82 fps=0.5 q=46.5 size=     512KiB time=00:00:02.66 bitrate=1573.0kbits/s speed=0.0173x elapsed=0:02:34.49    \nframe=   82 fps=0.5 q=46.5 size=     512KiB time=00:00:02.66 bitrate=1573.0kbits/s speed=0.0172x elapsed=0:02:35.01    \nframe=   82 fps=0.5 q=46.5 size=     512KiB time=00:00:02.66 bitrate=1573.0kbits/s speed=0.0171x elapsed=0:02:35.56    \nframe=   82 fps=0.5 q=46.5 size=     512KiB time=00:00:02.66 bitrate=1573.0kbits/s speed=0.0171x elapsed=0:02:36.11    \nframe=   82 fps=0.5 q=46.5 size=     512KiB time=00:00:02.66 bitrate=1573.0kbits/s speed=0.017x elapsed=0:02:36.67    \nframe=   82 fps=0.5 q=46.5 size=     512KiB time=00:00:02.66 bitrate=1573.0kbits/s speed=0.017x elapsed=0:02:37.23    \nframe=   83 fps=0.5 q=40.8 size=     512KiB time=00:00:02.70 bitrate=1553.6kbits/s speed=0.0171x elapsed=0:02:37.77    \nframe=   83 fps=0.5 q=40.8 size=     512KiB time=00:00:02.70 bitrate=1553.6kbits/s speed=0.0171x elapsed=0:02:38.29    \nframe=   83 fps=0.5 q=40.8 size=     512KiB time=00:00:02.70 bitrate=1553.6kbits/s speed=0.017x elapsed=0:02:38.81    \nframe=   83 fps=0.5 q=40.8 size=     512KiB time=00:00:02.70 bitrate=1553.6kbits/s speed=0.0169x elapsed=0:02:39.34    \nframe=   84 fps=0.5 q=44.1 size=     512KiB time=00:00:02.73 bitrate=1534.6kbits/s speed=0.0171x elapsed=0:02:39.87    \nframe=   84 fps=0.5 q=44.1 size=     512KiB time=00:00:02.73 bitrate=1534.6kbits/s speed=0.017x elapsed=0:02:40.40    \nframe=   84 fps=0.5 q=44.1 size=     512KiB time=00:00:02.73 bitrate=1534.6kbits/s speed=0.017x elapsed=0:02:40.95    \nframe=   84 fps=0.5 q=44.1 size=     512KiB time=00:00:02.73 bitrate=1534.6kbits/s speed=0.0169x elapsed=0:02:41.49    \nframe=   85 fps=0.5 q=46.5 size=     512KiB time=00:00:02.76 bitrate=1516.1kbits/s speed=0.0171x elapsed=0:02:42.05    \nframe=   85 fps=0.5 q=46.5 size=     512KiB time=00:00:02.76 bitrate=1516.1kbits/s speed=0.017x elapsed=0:02:42.56    \nframe=   86 fps=0.5 q=46.7 size=     512KiB time=00:00:02.80 bitrate=1498.1kbits/s speed=0.0172x elapsed=0:02:43.12    \nframe=   86 fps=0.5 q=46.7 size=     512KiB time=00:00:02.80 bitrate=1498.1kbits/s speed=0.0171x elapsed=0:02:43.66    \nframe=   86 fps=0.5 q=46.7 size=     512KiB time=00:00:02.80 bitrate=1498.1kbits/s speed=0.0171x elapsed=0:02:44.19    \nframe=   86 fps=0.5 q=46.7 size=     512KiB time=00:00:02.80 bitrate=1498.1kbits/s speed=0.017x elapsed=0:02:44.73    \nframe=   87 fps=0.5 q=40.9 size=     512KiB time=00:00:02.80 bitrate=1498.1kbits/s speed=0.0169x elapsed=0:02:45.29    \nframe=   87 fps=0.5 q=40.9 size=     512KiB time=00:00:02.83 bitrate=1480.5kbits/s speed=0.0171x elapsed=0:02:45.85    \nframe=   87 fps=0.5 q=40.9 size=     512KiB time=00:00:02.83 bitrate=1480.5kbits/s speed=0.017x elapsed=0:02:46.38    \nframe=   87 fps=0.5 q=40.9 size=     512KiB time=00:00:02.83 bitrate=1480.5kbits/s speed=0.017x elapsed=0:02:46.91    \nframe=   88 fps=0.5 q=44.3 size=     512KiB time=00:00:02.86 bitrate=1463.3kbits/s speed=0.0171x elapsed=0:02:47.46    \nframe=   88 fps=0.5 q=44.3 size=     512KiB time=00:00:02.86 bitrate=1463.3kbits/s speed=0.0171x elapsed=0:02:48.02    \nframe=   88 fps=0.5 q=44.3 size=     512KiB time=00:00:02.86 bitrate=1463.3kbits/s speed=0.017x elapsed=0:02:48.56    \nframe=   88 fps=0.5 q=44.3 size=     512KiB time=00:00:02.86 bitrate=1463.3kbits/s speed=0.0169x elapsed=0:02:49.13    \nframe=   88 fps=0.5 q=44.3 size=     512KiB time=00:00:02.86 bitrate=1463.3kbits/s speed=0.0169x elapsed=0:02:49.67    \nframe=   89 fps=0.5 q=46.5 size=     512KiB time=00:00:02.90 bitrate=1446.4kbits/s speed=0.017x elapsed=0:02:50.24    \nframe=   89 fps=0.5 q=46.5 size=     512KiB time=00:00:02.90 bitrate=1446.4kbits/s speed=0.017x elapsed=0:02:50.82    \nframe=   89 fps=0.5 q=46.5 size=     512KiB time=00:00:02.90 bitrate=1446.4kbits/s speed=0.0169x elapsed=0:02:51.42    \nframe=   90 fps=0.5 q=46.7 size=     512KiB time=00:00:02.93 bitrate=1430.0kbits/s speed=0.0171x elapsed=0:02:51.94    \nframe=   90 fps=0.5 q=46.7 size=     512KiB time=00:00:02.93 bitrate=1430.0kbits/s speed=0.017x elapsed=0:02:52.46    \nframe=   90 fps=0.5 q=46.7 size=     512KiB time=00:00:02.93 bitrate=1430.0kbits/s speed=0.017x elapsed=0:02:52.96    \nframe=   91 fps=0.5 q=40.9 size=     512KiB time=00:00:02.96 bitrate=1413.9kbits/s speed=0.0171x elapsed=0:02:53.48    \nframe=   91 fps=0.5 q=40.9 size=     512KiB time=00:00:02.96 bitrate=1413.9kbits/s speed=0.017x elapsed=0:02:54.00    \nframe=   91 fps=0.5 q=40.9 size=     512KiB time=00:00:02.96 bitrate=1413.9kbits/s speed=0.017x elapsed=0:02:54.55    \nframe=   92 fps=0.5 q=44.1 size=     512KiB time=00:00:03.00 bitrate=1398.2kbits/s speed=0.0171x elapsed=0:02:55.14    \nframe=   92 fps=0.5 q=44.1 size=     512KiB time=00:00:03.00 bitrate=1398.2kbits/s speed=0.0171x elapsed=0:02:55.65    \nframe=   92 fps=0.5 q=44.1 size=     512KiB time=00:00:03.00 bitrate=1398.2kbits/s speed=0.017x elapsed=0:02:56.17    \nframe=   93 fps=0.5 q=46.3 size=     512KiB time=00:00:03.03 bitrate=1382.9kbits/s speed=0.0172x elapsed=0:02:56.72    \nframe=   94 fps=0.5 q=46.4 size=     512KiB time=00:00:03.06 bitrate=1367.8kbits/s speed=0.0173x elapsed=0:02:57.24    \nframe=   94 fps=0.5 q=46.4 size=     512KiB time=00:00:03.06 bitrate=1367.8kbits/s speed=0.0172x elapsed=0:02:57.82    \nframe=   95 fps=0.5 q=41.0 size=     512KiB time=00:00:03.10 bitrate=1353.1kbits/s speed=0.0174x elapsed=0:02:58.39    \nframe=   95 fps=0.5 q=41.0 size=     512KiB time=00:00:03.10 bitrate=1353.1kbits/s speed=0.0173x elapsed=0:02:58.93    \nframe=   95 fps=0.5 q=41.0 size=     512KiB time=00:00:03.10 bitrate=1353.1kbits/s speed=0.0173x elapsed=0:02:59.45    \nframe=   96 fps=0.5 q=44.0 size=     768KiB time=00:00:03.13 bitrate=2008.0kbits/s speed=0.0174x elapsed=0:02:59.99    \nframe=   97 fps=0.5 q=46.3 size=     768KiB time=00:00:03.16 bitrate=1986.9kbits/s speed=0.0175x elapsed=0:03:00.54    \nframe=   97 fps=0.5 q=46.3 size=     768KiB time=00:00:03.16 bitrate=1986.9kbits/s speed=0.0175x elapsed=0:03:01.06    \nframe=   97 fps=0.5 q=46.3 size=     768KiB time=00:00:03.16 bitrate=1986.9kbits/s speed=0.0174x elapsed=0:03:01.59    \nframe=   97 fps=0.5 q=46.3 size=     768KiB time=00:00:03.16 bitrate=1986.9kbits/s speed=0.0174x elapsed=0:03:02.17    \nframe=   97 fps=0.5 q=46.3 size=     768KiB time=00:00:03.16 bitrate=1986.9kbits/s speed=0.0173x elapsed=0:03:02.72    \nframe=   97 fps=0.5 q=46.3 size=     768KiB time=00:00:03.16 bitrate=1986.9kbits/s speed=0.0173x elapsed=0:03:03.38    \nframe=   97 fps=0.5 q=46.3 size=     768KiB time=00:00:03.16 bitrate=1986.9kbits/s speed=0.0172x elapsed=0:03:04.08    \nframe=   98 fps=0.5 q=46.2 size=     768KiB time=00:00:03.16 bitrate=1986.9kbits/s speed=0.0171x elapsed=0:03:04.86    \nframe=   99 fps=0.5 q=40.9 size=     768KiB time=00:00:03.23 bitrate=1945.9kbits/s speed=0.0174x elapsed=0:03:05.63    \nframe=  101 fps=0.5 q=46.4 size=     768KiB time=00:00:03.30 bitrate=1906.6kbits/s speed=0.0177x elapsed=0:03:06.25    \nframe=  101 fps=0.5 q=46.4 size=     768KiB time=00:00:03.30 bitrate=1906.6kbits/s speed=0.0177x elapsed=0:03:06.81    \nframe=  101 fps=0.5 q=46.4 size=     768KiB time=00:00:03.30 bitrate=1906.6kbits/s speed=0.0176x elapsed=0:03:07.42    \nframe=  101 fps=0.5 q=46.4 size=     768KiB time=00:00:03.30 bitrate=1906.6kbits/s speed=0.0175x elapsed=0:03:08.03    \nframe=  102 fps=0.5 q=46.6 size=     768KiB time=00:00:03.33 bitrate=1887.5kbits/s speed=0.0177x elapsed=0:03:08.58    \nframe=  102 fps=0.5 q=46.6 size=     768KiB time=00:00:03.33 bitrate=1887.5kbits/s speed=0.0176x elapsed=0:03:09.18    \nframe=  103 fps=0.5 q=41.0 size=     768KiB time=00:00:03.36 bitrate=1868.9kbits/s speed=0.0177x elapsed=0:03:09.73    \nframe=  103 fps=0.5 q=41.0 size=     768KiB time=00:00:03.36 bitrate=1868.9kbits/s speed=0.0177x elapsed=0:03:10.24    \nframe=  103 fps=0.5 q=41.0 size=     768KiB time=00:00:03.36 bitrate=1868.9kbits/s speed=0.0176x elapsed=0:03:10.79    \nframe=  103 fps=0.5 q=41.0 size=     768KiB time=00:00:03.36 bitrate=1868.9kbits/s speed=0.0176x elapsed=0:03:11.40    \nframe=  104 fps=0.5 q=44.0 size=     768KiB time=00:00:03.40 bitrate=1850.5kbits/s speed=0.0177x elapsed=0:03:11.99    \nframe=  104 fps=0.5 q=44.0 size=     768KiB time=00:00:03.40 bitrate=1850.5kbits/s speed=0.0177x elapsed=0:03:12.60    \nframe=  106 fps=0.5 q=46.7 size=     768KiB time=00:00:03.46 bitrate=1814.9kbits/s speed=0.0179x elapsed=0:03:13.23    \nframe=  106 fps=0.5 q=46.7 size=     768KiB time=00:00:03.46 bitrate=1814.9kbits/s speed=0.0179x elapsed=0:03:13.76    \nframe=  106 fps=0.5 q=46.7 size=     768KiB time=00:00:03.46 bitrate=1814.9kbits/s speed=0.0178x elapsed=0:03:14.35    \nframe=  106 fps=0.5 q=46.7 size=     768KiB time=00:00:03.46 bitrate=1814.9kbits/s speed=0.0178x elapsed=0:03:15.10    \nframe=  106 fps=0.5 q=46.7 size=     768KiB time=00:00:03.46 bitrate=1814.9kbits/s speed=0.0177x elapsed=0:03:15.71    \nframe=  106 fps=0.5 q=46.7 size=     768KiB time=00:00:03.46 bitrate=1814.9kbits/s speed=0.0177x elapsed=0:03:16.25    \nframe=  106 fps=0.5 q=46.7 size=     768KiB time=00:00:03.46 bitrate=1814.9kbits/s speed=0.0176x elapsed=0:03:16.91    \nframe=  106 fps=0.5 q=46.7 size=     768KiB time=00:00:03.46 bitrate=1814.9kbits/s speed=0.0175x elapsed=0:03:17.55    \nframe=  106 fps=0.5 q=46.7 size=     768KiB time=00:00:03.46 bitrate=1814.9kbits/s speed=0.0175x elapsed=0:03:18.20    \nframe=  106 fps=0.5 q=46.7 size=     768KiB time=00:00:03.46 bitrate=1814.9kbits/s speed=0.0174x elapsed=0:03:18.73    \nframe=  106 fps=0.5 q=46.7 size=     768KiB time=00:00:03.46 bitrate=1814.9kbits/s speed=0.0174x elapsed=0:03:19.26    \nframe=  106 fps=0.5 q=46.7 size=     768KiB time=00:00:03.46 bitrate=1814.9kbits/s speed=0.0174x elapsed=0:03:19.78    \nframe=  107 fps=0.5 q=41.0 size=     768KiB time=00:00:03.50 bitrate=1797.7kbits/s speed=0.0175x elapsed=0:03:20.32    \nframe=  107 fps=0.5 q=41.0 size=     768KiB time=00:00:03.50 bitrate=1797.7kbits/s speed=0.0174x elapsed=0:03:20.89    \nframe=  107 fps=0.5 q=41.0 size=     768KiB time=00:00:03.50 bitrate=1797.7kbits/s speed=0.0174x elapsed=0:03:21.42    \nframe=  107 fps=0.5 q=41.0 size=     768KiB time=00:00:03.50 bitrate=1797.7kbits/s speed=0.0173x elapsed=0:03:21.98    \nframe=  107 fps=0.5 q=41.0 size=     768KiB time=00:00:03.50 bitrate=1797.7kbits/s speed=0.0173x elapsed=0:03:22.57    \nframe=  107 fps=0.5 q=41.0 size=     768KiB time=00:00:03.50 bitrate=1797.7kbits/s speed=0.0172x elapsed=0:03:23.20    \nframe=  107 fps=0.5 q=41.0 size=     768KiB time=00:00:03.50 bitrate=1797.7kbits/s speed=0.0172x elapsed=0:03:23.74    \nframe=  107 fps=0.5 q=41.0 size=     768KiB time=00:00:03.50 bitrate=1797.7kbits/s speed=0.0171x elapsed=0:03:24.29    \nframe=  108 fps=0.5 q=44.3 size=     768KiB time=00:00:03.53 bitrate=1780.7kbits/s speed=0.0172x elapsed=0:03:24.86    \nframe=  108 fps=0.5 q=44.3 size=     768KiB time=00:00:03.53 bitrate=1780.7kbits/s speed=0.0172x elapsed=0:03:25.44    \nframe=  109 fps=0.5 q=46.7 size=     768KiB time=00:00:03.53 bitrate=1780.7kbits/s speed=0.0172x elapsed=0:03:25.98    \nframe=  109 fps=0.5 q=46.7 size=     768KiB time=00:00:03.56 bitrate=1764.1kbits/s speed=0.0173x elapsed=0:03:26.61    \nframe=  110 fps=0.5 q=46.8 size=     768KiB time=00:00:03.60 bitrate=1747.7kbits/s speed=0.0174x elapsed=0:03:27.16    \nframe=  110 fps=0.5 q=46.8 size=     768KiB time=00:00:03.60 bitrate=1747.7kbits/s speed=0.0173x elapsed=0:03:27.78    \nframe=  110 fps=0.5 q=46.8 size=     768KiB time=00:00:03.60 bitrate=1747.7kbits/s speed=0.0173x elapsed=0:03:28.41    \nframe=  110 fps=0.5 q=46.8 size=     768KiB time=00:00:03.60 bitrate=1747.7kbits/s speed=0.0172x elapsed=0:03:29.02    \nframe=  110 fps=0.5 q=46.8 size=     768KiB time=00:00:03.60 bitrate=1747.7kbits/s speed=0.0172x elapsed=0:03:29.61    \nframe=  111 fps=0.5 q=41.0 size=     768KiB time=00:00:03.63 bitrate=1731.7kbits/s speed=0.0173x elapsed=0:03:30.18    \nframe=  111 fps=0.5 q=41.0 size=     768KiB time=00:00:03.63 bitrate=1731.7kbits/s speed=0.0172x elapsed=0:03:30.79    \nframe=  112 fps=0.5 q=45.4 size=     768KiB time=00:00:03.66 bitrate=1715.9kbits/s speed=0.0174x elapsed=0:03:31.33    \nframe=  112 fps=0.5 q=45.4 size=     768KiB time=00:00:03.66 bitrate=1715.9kbits/s speed=0.0173x elapsed=0:03:31.87    \nframe=  112 fps=0.5 q=45.4 size=     768KiB time=00:00:03.66 bitrate=1715.9kbits/s speed=0.0173x elapsed=0:03:32.41    \nframe=  112 fps=0.5 q=45.4 size=     768KiB time=00:00:03.66 bitrate=1715.9kbits/s speed=0.0172x elapsed=0:03:32.95    \nframe=  112 fps=0.5 q=45.4 size=     768KiB time=00:00:03.66 bitrate=1715.9kbits/s speed=0.0172x elapsed=0:03:33.57    \nframe=  112 fps=0.5 q=45.4 size=     768KiB time=00:00:03.66 bitrate=1715.9kbits/s speed=0.0171x elapsed=0:03:34.16    \nframe=  112 fps=0.5 q=45.4 size=     768KiB time=00:00:03.66 bitrate=1715.9kbits/s speed=0.0171x elapsed=0:03:34.76    \nframe=  112 fps=0.5 q=45.4 size=     768KiB time=00:00:03.66 bitrate=1715.9kbits/s speed=0.017x elapsed=0:03:35.53    \nframe=  113 fps=0.5 q=46.5 size=     768KiB time=00:00:03.70 bitrate=1700.5kbits/s speed=0.0171x elapsed=0:03:36.20    \nframe=  113 fps=0.5 q=46.5 size=     768KiB time=00:00:03.70 bitrate=1700.5kbits/s speed=0.0171x elapsed=0:03:36.90    \nframe=  113 fps=0.5 q=46.5 size=     768KiB time=00:00:03.70 bitrate=1700.5kbits/s speed=0.017x elapsed=0:03:37.52    \nframe=  113 fps=0.5 q=46.5 size=     768KiB time=00:00:03.70 bitrate=1700.5kbits/s speed=0.017x elapsed=0:03:38.05    \nframe=  113 fps=0.5 q=46.5 size=     768KiB time=00:00:03.70 bitrate=1700.5kbits/s speed=0.0169x elapsed=0:03:38.72    \nframe=  114 fps=0.5 q=46.4 size=     768KiB time=00:00:03.73 bitrate=1685.3kbits/s speed=0.017x elapsed=0:03:39.50    \nframe=  114 fps=0.5 q=46.4 size=     768KiB time=00:00:03.73 bitrate=1685.3kbits/s speed=0.017x elapsed=0:03:40.13    \nframe=  114 fps=0.5 q=46.4 size=     768KiB time=00:00:03.73 bitrate=1685.3kbits/s speed=0.0169x elapsed=0:03:40.84    \nframe=  114 fps=0.5 q=46.4 size=     768KiB time=00:00:03.73 bitrate=1685.3kbits/s speed=0.0169x elapsed=0:03:41.38    \nframe=  114 fps=0.5 q=46.4 size=     768KiB time=00:00:03.73 bitrate=1685.3kbits/s speed=0.0168x elapsed=0:03:42.01    \nframe=  115 fps=0.5 q=46.7 size=     768KiB time=00:00:03.76 bitrate=1670.4kbits/s speed=0.0169x elapsed=0:03:42.61    \nframe=  115 fps=0.5 q=46.7 size=     768KiB time=00:00:03.76 bitrate=1670.4kbits/s speed=0.0169x elapsed=0:03:43.13    \nframe=  116 fps=0.5 q=41.0 size=     768KiB time=00:00:03.76 bitrate=1670.4kbits/s speed=0.0168x elapsed=0:03:43.67    \nframe=  116 fps=0.5 q=41.0 size=     768KiB time=00:00:03.80 bitrate=1655.7kbits/s speed=0.0169x elapsed=0:03:44.32    \nframe=  116 fps=0.5 q=41.0 size=     768KiB time=00:00:03.80 bitrate=1655.7kbits/s speed=0.0169x elapsed=0:03:44.86    \nframe=  116 fps=0.5 q=41.0 size=     768KiB time=00:00:03.80 bitrate=1655.7kbits/s speed=0.0169x elapsed=0:03:45.41    \nframe=  116 fps=0.5 q=41.0 size=     768KiB time=00:00:03.80 bitrate=1655.7kbits/s speed=0.0168x elapsed=0:03:45.94    \nframe=  116 fps=0.5 q=41.0 size=     768KiB time=00:00:03.80 bitrate=1655.7kbits/s speed=0.0168x elapsed=0:03:46.50    \nframe=  117 fps=0.5 q=44.1 size=     768KiB time=00:00:03.83 bitrate=1641.3kbits/s speed=0.0169x elapsed=0:03:47.03    \nframe=  118 fps=0.5 q=46.3 size=     768KiB time=00:00:03.86 bitrate=1627.2kbits/s speed=0.017x elapsed=0:03:47.58    \nframe=  118 fps=0.5 q=46.3 size=     768KiB time=00:00:03.86 bitrate=1627.2kbits/s speed=0.0169x elapsed=0:03:48.12    \nframe=  119 fps=0.5 q=46.3 size=     768KiB time=00:00:03.90 bitrate=1613.3kbits/s speed=0.0171x elapsed=0:03:48.67    \nframe=  119 fps=0.5 q=46.3 size=     768KiB time=00:00:03.90 bitrate=1613.3kbits/s speed=0.017x elapsed=0:03:49.20    \nframe=  119 fps=0.5 q=46.3 size=     768KiB time=00:00:03.90 bitrate=1613.3kbits/s speed=0.017x elapsed=0:03:49.74    \nframe=  120 fps=0.5 q=41.0 size=     768KiB time=00:00:03.93 bitrate=1599.6kbits/s speed=0.0171x elapsed=0:03:50.26    \nframe=  120 fps=0.5 q=41.0 size=     768KiB time=00:00:03.93 bitrate=1599.6kbits/s speed=0.017x elapsed=0:03:50.79    \nframe=  121 fps=0.5 q=43.9 size=     768KiB time=00:00:03.96 bitrate=1586.2kbits/s speed=0.0171x elapsed=0:03:51.31    \nframe=  121 fps=0.5 q=43.9 size=     768KiB time=00:00:03.96 bitrate=1586.2kbits/s speed=0.0171x elapsed=0:03:51.85    \nframe=  122 fps=0.5 q=46.3 size=     768KiB time=00:00:04.00 bitrate=1573.0kbits/s speed=0.0172x elapsed=0:03:52.40    \nframe=  122 fps=0.5 q=46.3 size=     768KiB time=00:00:04.00 bitrate=1573.0kbits/s speed=0.0172x elapsed=0:03:52.92    \nframe=  122 fps=0.5 q=46.3 size=     768KiB time=00:00:04.00 bitrate=1573.0kbits/s speed=0.0171x elapsed=0:03:53.46    \nframe=  123 fps=0.5 q=46.5 size=     768KiB time=00:00:04.03 bitrate=1560.0kbits/s speed=0.0172x elapsed=0:03:53.98    \nframe=  124 fps=0.5 q=41.1 size=     768KiB time=00:00:04.06 bitrate=1547.2kbits/s speed=0.0173x elapsed=0:03:54.49    \nframe=  124 fps=0.5 q=41.1 size=     768KiB time=00:00:04.06 bitrate=1547.2kbits/s speed=0.0173x elapsed=0:03:55.03    \nframe=  125 fps=0.5 q=44.2 size=     768KiB time=00:00:04.10 bitrate=1534.6kbits/s speed=0.0174x elapsed=0:03:55.59    \nframe=  125 fps=0.5 q=44.2 size=     768KiB time=00:00:04.10 bitrate=1534.6kbits/s speed=0.0174x elapsed=0:03:56.12    \nframe=  125 fps=0.5 q=44.2 size=     768KiB time=00:00:04.10 bitrate=1534.6kbits/s speed=0.0173x elapsed=0:03:56.68    \nframe=  125 fps=0.5 q=44.2 size=     768KiB time=00:00:04.10 bitrate=1534.6kbits/s speed=0.0173x elapsed=0:03:57.22    \nframe=  126 fps=0.5 q=46.7 size=    1024KiB time=00:00:04.13 bitrate=2029.6kbits/s speed=0.0174x elapsed=0:03:57.75    \nframe=  126 fps=0.5 q=46.7 size=    1024KiB time=00:00:04.13 bitrate=2029.6kbits/s speed=0.0173x elapsed=0:03:58.28    \nframe=  128 fps=0.5 q=41.1 size=    1024KiB time=00:00:04.20 bitrate=1997.4kbits/s speed=0.0176x elapsed=0:03:58.81    \nframe=  128 fps=0.5 q=41.1 size=    1024KiB time=00:00:04.20 bitrate=1997.4kbits/s speed=0.0175x elapsed=0:03:59.37    \nframe=  128 fps=0.5 q=41.1 size=    1024KiB time=00:00:04.20 bitrate=1997.4kbits/s speed=0.0175x elapsed=0:03:59.89    \nframe=  128 fps=0.5 q=41.1 size=    1024KiB time=00:00:04.20 bitrate=1997.4kbits/s speed=0.0175x elapsed=0:04:00.46    \nframe=  128 fps=0.5 q=41.1 size=    1024KiB time=00:00:04.20 bitrate=1997.4kbits/s speed=0.0174x elapsed=0:04:01.01    \nframe=  128 fps=0.5 q=41.1 size=    1024KiB time=00:00:04.20 bitrate=1997.4kbits/s speed=0.0174x elapsed=0:04:01.58    \nframe=  129 fps=0.5 q=44.0 size=    1024KiB time=00:00:04.23 bitrate=1981.6kbits/s speed=0.0175x elapsed=0:04:02.13    \nframe=  129 fps=0.5 q=44.0 size=    1024KiB time=00:00:04.23 bitrate=1981.6kbits/s speed=0.0174x elapsed=0:04:02.85    \nframe=  129 fps=0.5 q=44.0 size=    1024KiB time=00:00:04.23 bitrate=1981.6kbits/s speed=0.0174x elapsed=0:04:03.50    \nframe=  129 fps=0.5 q=44.0 size=    1024KiB time=00:00:04.23 bitrate=1981.6kbits/s speed=0.0173x elapsed=0:04:04.32    \nframe=  129 fps=0.5 q=44.0 size=    1024KiB time=00:00:04.23 bitrate=1981.6kbits/s speed=0.0173x elapsed=0:04:05.12    \nframe=  129 fps=0.5 q=44.0 size=    1024KiB time=00:00:04.23 bitrate=1981.6kbits/s speed=0.0172x elapsed=0:04:05.65    \nframe=  130 fps=0.5 q=46.5 size=    1024KiB time=00:00:04.26 bitrate=1966.2kbits/s speed=0.0173x elapsed=0:04:06.21    \nframe=  130 fps=0.5 q=46.5 size=    1024KiB time=00:00:04.26 bitrate=1966.2kbits/s speed=0.0173x elapsed=0:04:06.82    \nframe=  130 fps=0.5 q=46.5 size=    1024KiB time=00:00:04.26 bitrate=1966.2kbits/s speed=0.0172x elapsed=0:04:07.45    \nframe=  130 fps=0.5 q=46.5 size=    1024KiB time=00:00:04.26 bitrate=1966.2kbits/s speed=0.0172x elapsed=0:04:08.28    \nframe=  130 fps=0.5 q=46.5 size=    1024KiB time=00:00:04.26 bitrate=1966.2kbits/s speed=0.0171x elapsed=0:04:08.88    \nframe=  130 fps=0.5 q=46.5 size=    1024KiB time=00:00:04.26 bitrate=1966.2kbits/s speed=0.0171x elapsed=0:04:09.48    \nframe=  131 fps=0.5 q=46.3 size=    1024KiB time=00:00:04.30 bitrate=1950.9kbits/s speed=0.0172x elapsed=0:04:10.11    \nframe=  131 fps=0.5 q=46.3 size=    1024KiB time=00:00:04.30 bitrate=1950.9kbits/s speed=0.0171x elapsed=0:04:10.77    \nframe=  131 fps=0.5 q=46.3 size=    1024KiB time=00:00:04.30 bitrate=1950.9kbits/s speed=0.0171x elapsed=0:04:11.38    \nframe=  131 fps=0.5 q=46.3 size=    1024KiB time=00:00:04.30 bitrate=1950.9kbits/s speed=0.0171x elapsed=0:04:11.93    \nframe=  132 fps=0.5 q=41.0 size=    1024KiB time=00:00:04.33 bitrate=1935.9kbits/s speed=0.0172x elapsed=0:04:12.48    \nframe=  132 fps=0.5 q=41.0 size=    1024KiB time=00:00:04.33 bitrate=1935.9kbits/s speed=0.0171x elapsed=0:04:13.01    \nframe=  132 fps=0.5 q=41.0 size=    1024KiB time=00:00:04.33 bitrate=1935.9kbits/s speed=0.0171x elapsed=0:04:13.73    \nframe=  132 fps=0.5 q=41.0 size=    1024KiB time=00:00:04.33 bitrate=1935.9kbits/s speed=0.017x elapsed=0:04:14.41    \nframe=  132 fps=0.5 q=41.0 size=    1024KiB time=00:00:04.33 bitrate=1935.9kbits/s speed=0.017x elapsed=0:04:14.95    \nframe=  132 fps=0.5 q=41.0 size=    1024KiB time=00:00:04.33 bitrate=1935.9kbits/s speed=0.017x elapsed=0:04:15.50    \nframe=  132 fps=0.5 q=41.0 size=    1024KiB time=00:00:04.33 bitrate=1935.9kbits/s speed=0.0169x elapsed=0:04:16.08    \nframe=  133 fps=0.5 q=44.2 size=    1024KiB time=00:00:04.36 bitrate=1921.1kbits/s speed=0.017x elapsed=0:04:16.72    \nframe=  133 fps=0.5 q=44.2 size=    1024KiB time=00:00:04.36 bitrate=1921.1kbits/s speed=0.017x elapsed=0:04:17.30    \nframe=  134 fps=0.5 q=46.4 size=    1024KiB time=00:00:04.40 bitrate=1906.6kbits/s speed=0.0171x elapsed=0:04:17.96    \nframe=  134 fps=0.5 q=46.4 size=    1024KiB time=00:00:04.40 bitrate=1906.6kbits/s speed=0.017x elapsed=0:04:18.60    \nframe=  134 fps=0.5 q=46.4 size=    1024KiB time=00:00:04.40 bitrate=1906.6kbits/s speed=0.017x elapsed=0:04:19.25    \nframe=  134 fps=0.5 q=46.4 size=    1024KiB time=00:00:04.40 bitrate=1906.6kbits/s speed=0.0169x elapsed=0:04:19.81    \nframe=  135 fps=0.5 q=46.5 size=    1024KiB time=00:00:04.43 bitrate=1892.2kbits/s speed=0.017x elapsed=0:04:20.40    \nframe=  135 fps=0.5 q=46.5 size=    1024KiB time=00:00:04.43 bitrate=1892.2kbits/s speed=0.017x elapsed=0:04:21.01    \nframe=  135 fps=0.5 q=46.5 size=    1024KiB time=00:00:04.43 bitrate=1892.2kbits/s speed=0.0169x elapsed=0:04:21.60    \nframe=  135 fps=0.5 q=46.5 size=    1024KiB time=00:00:04.43 bitrate=1892.2kbits/s speed=0.0169x elapsed=0:04:22.19    \nframe=  136 fps=0.5 q=41.2 size=    1024KiB time=00:00:04.46 bitrate=1878.1kbits/s speed=0.017x elapsed=0:04:22.83    \nframe=  136 fps=0.5 q=41.2 size=    1024KiB time=00:00:04.46 bitrate=1878.1kbits/s speed=0.017x elapsed=0:04:23.47    \nframe=  136 fps=0.5 q=41.2 size=    1024KiB time=00:00:04.46 bitrate=1878.1kbits/s speed=0.0169x elapsed=0:04:24.11    \nframe=  136 fps=0.5 q=41.2 size=    1024KiB time=00:00:04.46 bitrate=1878.1kbits/s speed=0.0169x elapsed=0:04:24.74    \nframe=  136 fps=0.5 q=41.2 size=    1024KiB time=00:00:04.46 bitrate=1878.1kbits/s speed=0.0168x elapsed=0:04:25.32    \nframe=  136 fps=0.5 q=41.2 size=    1024KiB time=00:00:04.46 bitrate=1878.1kbits/s speed=0.0168x elapsed=0:04:25.91    \nframe=  136 fps=0.5 q=41.2 size=    1024KiB time=00:00:04.46 bitrate=1878.1kbits/s speed=0.0168x elapsed=0:04:26.45    \nframe=  136 fps=0.5 q=41.2 size=    1024KiB time=00:00:04.46 bitrate=1878.1kbits/s speed=0.0167x elapsed=0:04:26.97    \nframe=  136 fps=0.5 q=41.2 size=    1024KiB time=00:00:04.46 bitrate=1878.1kbits/s speed=0.0167x elapsed=0:04:27.48    \nframe=  136 fps=0.5 q=41.2 size=    1024KiB time=00:00:04.46 bitrate=1878.1kbits/s speed=0.0167x elapsed=0:04:28.00    \nframe=  137 fps=0.5 q=45.3 size=    1024KiB time=00:00:04.50 bitrate=1864.2kbits/s speed=0.0167x elapsed=0:04:28.70    \nframe=  137 fps=0.5 q=45.3 size=    1024KiB time=00:00:04.50 bitrate=1864.2kbits/s speed=0.0167x elapsed=0:04:29.35    \nframe=  137 fps=0.5 q=45.3 size=    1024KiB time=00:00:04.50 bitrate=1864.2kbits/s speed=0.0167x elapsed=0:04:30.02    \nframe=  137 fps=0.5 q=45.3 size=    1024KiB time=00:00:04.50 bitrate=1864.2kbits/s speed=0.0166x elapsed=0:04:30.54    \nframe=  137 fps=0.5 q=45.3 size=    1024KiB time=00:00:04.50 bitrate=1864.2kbits/s speed=0.0166x elapsed=0:04:31.06    \nframe=  138 fps=0.5 q=46.3 size=    1024KiB time=00:00:04.53 bitrate=1850.5kbits/s speed=0.0167x elapsed=0:04:31.59    \nframe=  139 fps=0.5 q=46.5 size=    1024KiB time=00:00:04.56 bitrate=1837.0kbits/s speed=0.0168x elapsed=0:04:32.13    \nframe=  140 fps=0.5 q=46.5 size=    1024KiB time=00:00:04.60 bitrate=1823.7kbits/s speed=0.0169x elapsed=0:04:32.75    \nframe=  140 fps=0.5 q=46.5 size=    1024KiB time=00:00:04.60 bitrate=1823.7kbits/s speed=0.0168x elapsed=0:04:33.36    \nframe=  140 fps=0.5 q=46.5 size=    1024KiB time=00:00:04.60 bitrate=1823.7kbits/s speed=0.0168x elapsed=0:04:33.94    \nframe=  140 fps=0.5 q=46.5 size=    1024KiB time=00:00:04.60 bitrate=1823.7kbits/s speed=0.0168x elapsed=0:04:34.51    \nframe=  140 fps=0.5 q=46.5 size=    1024KiB time=00:00:04.60 bitrate=1823.7kbits/s speed=0.0167x elapsed=0:04:35.02    \nframe=  140 fps=0.5 q=46.5 size=    1024KiB time=00:00:04.60 bitrate=1823.7kbits/s speed=0.0167x elapsed=0:04:35.61    \nframe=  140 fps=0.5 q=46.5 size=    1024KiB time=00:00:04.60 bitrate=1823.7kbits/s speed=0.0166x elapsed=0:04:36.33    \nframe=  140 fps=0.5 q=46.5 size=    1024KiB time=00:00:04.60 bitrate=1823.7kbits/s speed=0.0166x elapsed=0:04:36.97    \nframe=  140 fps=0.5 q=46.5 size=    1024KiB time=00:00:04.60 bitrate=1823.7kbits/s speed=0.0166x elapsed=0:04:37.57    \nframe=  140 fps=0.5 q=46.5 size=    1024KiB time=00:00:04.60 bitrate=1823.7kbits/s speed=0.0165x elapsed=0:04:38.17    \nframe=  140 fps=0.5 q=46.5 size=    1024KiB time=00:00:04.60 bitrate=1823.7kbits/s speed=0.0165x elapsed=0:04:38.79    \nframe=  140 fps=0.5 q=46.5 size=    1024KiB time=00:00:04.60 bitrate=1823.7kbits/s speed=0.0165x elapsed=0:04:39.44    \nframe=  141 fps=0.5 q=41.6 size=    1024KiB time=00:00:04.63 bitrate=1810.6kbits/s speed=0.0165x elapsed=0:04:40.08    \nframe=  141 fps=0.5 q=41.6 size=    1024KiB time=00:00:04.63 bitrate=1810.6kbits/s speed=0.0165x elapsed=0:04:40.68    \nframe=  141 fps=0.5 q=41.6 size=    1024KiB time=00:00:04.63 bitrate=1810.6kbits/s speed=0.0165x elapsed=0:04:41.20    \nframe=  142 fps=0.5 q=45.2 size=    1024KiB time=00:00:04.66 bitrate=1797.6kbits/s speed=0.0166x elapsed=0:04:41.77    \nframe=  142 fps=0.5 q=45.2 size=    1024KiB time=00:00:04.66 bitrate=1797.6kbits/s speed=0.0165x elapsed=0:04:42.30    \nframe=  143 fps=0.5 q=46.3 size=    1024KiB time=00:00:04.70 bitrate=1784.9kbits/s speed=0.0166x elapsed=0:04:42.83    \nframe=  143 fps=0.5 q=46.3 size=    1024KiB time=00:00:04.70 bitrate=1784.9kbits/s speed=0.0166x elapsed=0:04:43.39    \nframe=  145 fps=0.5 q=46.3 size=    1024KiB time=00:00:04.76 bitrate=1759.9kbits/s speed=0.0168x elapsed=0:04:43.93    \nframe=  145 fps=0.5 q=46.3 size=    1024KiB time=00:00:04.76 bitrate=1759.9kbits/s speed=0.0168x elapsed=0:04:44.47    \nframe=  145 fps=0.5 q=46.3 size=    1024KiB time=00:00:04.76 bitrate=1759.9kbits/s speed=0.0167x elapsed=0:04:45.00    \nframe=  145 fps=0.5 q=46.3 size=    1024KiB time=00:00:04.76 bitrate=1759.9kbits/s speed=0.0167x elapsed=0:04:45.55    \nframe=  145 fps=0.5 q=46.3 size=    1024KiB time=00:00:04.76 bitrate=1759.9kbits/s speed=0.0167x elapsed=0:04:46.14    \nframe=  146 fps=0.5 q=43.7 size=    1024KiB time=00:00:04.80 bitrate=1747.7kbits/s speed=0.0167x elapsed=0:04:46.69    \nframe=  146 fps=0.5 q=43.7 size=    1024KiB time=00:00:04.80 bitrate=1747.7kbits/s speed=0.0167x elapsed=0:04:47.24    \nframe=  147 fps=0.5 q=43.7 size=    1024KiB time=00:00:04.83 bitrate=1735.6kbits/s speed=0.0168x elapsed=0:04:47.79    \nframe=  147 fps=0.5 q=43.7 size=    1024KiB time=00:00:04.83 bitrate=1735.6kbits/s speed=0.0168x elapsed=0:04:48.36    \n[mp4 @ 0000025108ec9740] Starting second pass: moving the moov atom to the beginning of the file\n[out#0/mp4 @ 0000025108ebab00] video:1204KiB audio:0KiB subtitle:0KiB other streams:0KiB global headers:2KiB muxing overhead: 0.429647%\nframe=  150 fps=0.5 q=46.5 Lsize=    1209KiB time=00:00:04.93 bitrate=2007.5kbits/s speed=0.0171x elapsed=0:04:48.58    \nx265 [info]: frame I:      1, Avg QP:41.26  kb/s: 9462.48 \nx265 [info]: frame P:     36, Avg QP:41.13  kb/s: 5324.27 \nx265 [info]: frame B:    113, Avg QP:46.02  kb/s: 836.76  \nx265 [info]: Weighted P-Frames: Y:0.0% UV:0.0%\n\nencoded 150 frames in 287.80s (0.52 fps), 1971.27 kb/s, Avg QP:44.81\n",
  "seconds": 289.0948157310486,
  "probe_out": {}
}